<svg aria-hidden="true" style="position:absolute;width:0;height:0;overflow:hidden" xmlns="http://www.w3.org/2000/svg">
    <defs>
        <symbol id="icon-burger" viewBox="0 0 46 32">
            <path d="M0 2.286h45.714M0 16h45.714M0 29.714h45.714" />
        </symbol>
        <symbol id="icon-close" viewBox="0 0 32 32">
            <path d="m2.518 2 26.963 28M2 29.481 30 2.518" />
        </symbol>
        <symbol id="icon-ellipse" viewBox="0 0 35 32">
            <path d="M33.053 16c0 8.837-7.163 16-16 16s-16-7.163-16-16 7.163-16 16-16 16 7.163 16 16z" />
        </symbol>
        <symbol id="icon-facebook" viewBox="0 0 16 32">
            <path d="M14.266 15.97H10.09v15.39H3.763V15.97H.754v-5.409h3.009v-3.5c0-2.503 1.182-6.422 6.384-6.422l4.687.02v5.25h-3.401c-.558 0-1.342.28-1.342 1.474v3.183h4.729l-.553 5.403z" />
        </symbol>
        <symbol id="icon-git" viewBox="0 0 32 32">
            <path d="M16 .941C7.729.941.941 7.729.941 16c0 7.058 4.953 13.47 11.529 15.059v-4.982c-.652.143-1.251.147-1.915-.049-.89-.263-1.613-.855-2.15-1.759-.342-.577-.949-1.203-1.581-1.157l-.155-1.758c1.368-.117 2.551.833 3.254 2.014.312.525.671.832 1.132.968.446.131.924.068 1.481-.129.14-1.116.651-1.534 1.037-2.122v-.001c-3.922-.585-5.486-2.666-6.106-4.308-.822-2.181-.381-4.905 1.073-6.627.028-.034.079-.121.059-.183-.667-2.014.146-3.679.176-3.856.769.228.894-.229 3.342 1.258l.423.254c.177.105.121.045.298.032a12.77 12.77 0 0 1 3.16-.445 12.84 12.84 0 0 1 3.204.456l.137.014c-.012-.002.037-.009.12-.058 3.057-1.852 2.947-1.247 3.767-1.513.03.177.831 1.87.172 3.858-.089.274 2.65 2.782 1.132 6.809-.62 1.643-2.183 3.724-6.106 4.309v.001c.503.766 1.107 1.174 1.104 2.755v6.219C26.105 29.47 31.057 23.058 31.057 16 31.057 7.729 24.27.941 15.998.941z" />
        </symbol>
        <symbol id="icon-home" viewBox="0 0 35 32">
            <path d="M32.64 15.401a1.541 1.541 0 0 0-.129-2.225L17.739.426c-.671-.578-1.745-.566-2.402.027L.515 13.856a1.532 1.532 0 0 0-.071 2.222l.372.382c.617.633 1.613.708 2.224.168l1.108-.979v14.326c0 .879.722 1.591 1.612 1.591h5.778c.89 0 1.612-.712 1.612-1.591V19.952h7.37v10.023c-.013.878.624 1.59 1.515 1.59h6.123c.89 0 1.613-.711 1.613-1.59V15.851l.683.592c.377.328 1.168.065 1.767-.586l.42-.455z" />
        </symbol>
        <symbol id="icon-logo" viewBox="0 0 127 32">
            <path d="M31.36 16.32C31.36 24.98 24.483 32 16 32S.64 24.98.64 16.32 7.517.64 16 .64s15.36 7.02 15.36 15.68z" />
            <path d="M11.849.562C4.443 2.805 0 8.635 0 16.004c0 6.023 3.091 11.277 8.179 13.904 2.64 1.346 3.027.384.58-1.474-1.739-1.41-2.061-2.05-2.061-4.421 0-1.666-.386-3.011-.966-3.524-1.159-.961-1.288-3.46-.129-4.357.451-.384.902-1.666.966-2.819.322-4.229 4.894-8.201 9.467-8.201s9.145 3.973 9.466 8.201c.064 1.153.515 2.435.966 2.819 1.159.897 1.03 3.396-.129 4.357-.58.513-.966 1.858-.966 3.524 0 2.371-.322 3.011-2.061 4.421-2.705 2.114-1.932 2.883 1.095 1.025 4.25-2.627 7.406-8.33 7.406-13.391C31.813 5.944 21.252-2.257 11.85.562z" />
            <path d="M12.686 7.994c-1.159.513-2.125 1.153-2.125 1.538 0 .705 3.477 1.986 5.474 1.986s5.474-1.281 5.474-1.986c0-.769-3.993-2.499-5.603-2.499-.644.064-2.125.449-3.22.961zM45.851 11.326c-.966.256-1.159 1.089-1.159 5.703v5.382h4.572l-.193-5.574c-.193-5.831-.451-6.279-3.22-5.51zM53.386 11.646c-2.125 1.153-2.898 2.563-2.898 5.318 0 3.78 2.061 5.574 5.86 5.318 2.576-.192 2.833-.384 3.027-1.986s.064-1.73-1.932-1.602c-2.061.192-2.125.064-2.125-2.05s.129-2.243 1.996-2.05c1.546.128 2.125-.128 2.383-1.089.129-.641 0-1.538-.386-1.922-.902-.897-4.25-.897-5.925.064zM61.049 11.71c-.193.513-.258 3.011-.129 5.638l.193 4.741h4.186c3.864 0 4.186-.128 4.379-1.474.193-1.217-.064-1.41-2.06-1.41-1.288 0-2.319-.32-2.319-.641 0-.384.902-.641 1.932-.641 1.481 0 1.932-.256 1.932-1.281s-.451-1.281-1.932-1.281c-1.03 0-1.932-.32-1.932-.641 0-.384.837-.641 1.868-.641 1.804 0 3.027-1.41 2.254-2.627-.58-.961-7.985-.705-8.372.256zM73.993 11.518c-2.125.833-2.962 2.307-3.027 4.998-.065 4.613 1.803 6.215 6.633 5.767 1.868-.128 2.189-.448 2.189-1.794 0-1.41-.257-1.602-2.061-1.41-1.546.128-2.125-.064-2.447-1.089-.58-1.986.644-3.588 2.705-3.588 1.224 0 1.868-.384 1.996-1.217.451-2.05-2.833-3.011-5.989-1.666zM81.914 11.262c-.323.256-.515 2.883-.515 5.831v5.382l2.06-.192c1.61-.128 2.19-.577 2.512-1.794l.386-1.602.515 1.73c.387 1.474.837 1.794 2.512 1.794 2.769 0 3.091-.448 1.932-2.691-.708-1.41-.837-2.114-.322-2.627.837-.833.902-3.652.129-4.87-.644-1.025-8.371-1.858-9.208-.961zm5.28 3.46c0 .705-.257 1.281-.644 1.281-.322 0-.644-.577-.644-1.281s.322-1.281.644-1.281c.387 0 .644.577.644 1.281zM93.441 11.326c-.258.192-.451 2.819-.451 5.767v5.318h4.186c4.057 0 4.186-.064 4.186-1.602 0-1.346-.322-1.602-1.932-1.602-1.03 0-1.932-.32-1.932-.641 0-.384.708-.641 1.61-.641 1.159 0 1.61-.32 1.61-1.281s-.451-1.281-1.61-1.281c-.902 0-1.61-.32-1.61-.641 0-.384.902-.641 1.932-.641 1.61 0 1.932-.256 1.932-1.602 0-1.538-.193-1.602-3.735-1.602-2.061 0-3.992.192-4.186.448zM106.45 11.262c-1.16.32-4.122 8.842-3.542 10.252.515 1.281 3.413 1.153 4.186-.192.579-1.089.644-1.089 1.803 0 1.482 1.281 4.701 1.474 4.701.256 0-.384-.644-2.947-1.482-5.574-1.288-4.229-1.674-4.806-3.027-4.934-.902 0-2.061.064-2.64.192zm1.803 5.831c-.193.641-.322.256-.322-.769 0-1.089.129-1.538.322-1.153.129.448.129 1.346 0 1.922zM115.723 11.326c-.58.192-.837 1.986-.837 5.703v5.382h1.868c1.61 0 1.932-.32 2.189-1.794.257-1.666.257-1.666.772-.32.258.833.902 1.474 1.352 1.474.515 0 1.224-.641 1.546-1.474.515-1.346.58-1.346.58.384.065 1.602.257 1.794 2.061 1.602l1.996-.192.065-5.318c.129-4.934.064-5.318-1.288-5.638-2.061-.513-3.799.705-4.379 3.076l-.451 2.114-.708-2.243c-.902-3.011-2.254-3.78-4.765-2.755zM9.016 11.967c-.193.256-.386 1.089-.386 1.922 0 1.474.064 1.474 7.406 1.474s7.406 0 7.406-1.474c0-2.178-.58-2.435-2.64-1.41-2.318 1.217-7.213 1.217-9.531 0-1.03-.513-1.996-.705-2.254-.513zM7.148 17.669c-1.03 1.089.708 1.538 5.731 1.538h5.409v2.243c0 1.217.322 2.243.644 2.243.386 0 .644-.961.644-2.178 0-2.114.129-2.243 2.576-2.435 1.417-.128 2.576-.513 2.576-.833 0-.705-16.872-1.281-17.581-.577z" />
            <path d="M8.629 23.308c0 3.524 1.224 4.229 7.406 4.229s7.406-.705 7.406-4.229c0-1.538-.322-2.178-.966-2.178-.58 0-.966.577-.966 1.538 0 3.588-4.894 3.908-5.603.384-.322-1.858-.515-1.922-3.8-1.922H8.629v2.178zM12.622 30.548c.386 2.05 6.955 1.858 6.955-.128 0-.705-.837-.961-3.606-.961-3.027 0-3.542.192-3.349 1.089z" />
        </symbol>
        <symbol id="icon-telegram" viewBox="0 0 40 32">
            <path d="m16.205 20.751-.635 8.339c.909 0 1.302-.364 1.774-.802l4.261-3.801 8.829 6.035c1.619.842 2.76.399 3.197-1.39l5.797-25.346c.514-2.234-.866-3.108-2.443-2.56L2.92 13.398c-2.325.842-2.29 2.052-.395 2.6l8.709 2.528L31.463 6.712c.952-.588 1.818-.263 1.106.326L16.205 20.751z" />
        </symbol>
        <symbol id="icon-arrow-right" viewBox="0 0 32 32">
            <path d="m19.414 27.414 10-10a2 2 0 0 0 0-2.828l-10-10a2 2 0 1 0-2.828 2.828L23.172 14H4a2 2 0 1 0 0 4h19.172l-6.586 6.586c-.39.39-.586.902-.586 1.414s.195 1.024.586 1.414a2 2 0 0 0 2.828 0z" />
        </symbol>
    </defs>
</svg>